<mxfile host="app.diagrams.net" modified="2023-08-16T01:24:19.452Z" agent="Mozilla/5.0 (Windows NT 10.0; Win64; x64) AppleWebKit/537.36 (KHTML, like Gecko) Chrome/115.0.0.0 Safari/537.36 Edg/115.0.1901.203" version="21.6.8" etag="ShUEpt9XxE5PyWVlbBIU" type="github">
  <diagram name="第 1 页" id="MIGqMtCCGvQdlfg0W5bE">
    <mxGraphModel>
      <root>
        <mxCell id="0" />
        <mxCell id="1" parent="0" />
      </root>
    </mxGraphModel>
  </diagram>
</mxfile>
